<?xml version="1.0" encoding="UTF-8" standalone="no"?>
<svg
   viewBox="0 0 50 31.15372"
   preserveAspectRatio="xMidYMid"
   class="css-8aabad"
   id="gbbdgaha"
   version="1.1"
   sodipodi:docname="logo_greg_fond.svg"
   width="50"
   height="31.153719"
   inkscape:version="1.2.2 (b0a8486541, 2022-12-01)"
   xmlns:inkscape="http://www.inkscape.org/namespaces/inkscape"
   xmlns:sodipodi="http://sodipodi.sourceforge.net/DTD/sodipodi-0.dtd"
   xmlns="http://www.w3.org/2000/svg"
   xmlns:svg="http://www.w3.org/2000/svg">
  <sodipodi:namedview
     id="namedview10"
     pagecolor="#ffffff"
     bordercolor="#000000"
     borderopacity="0.25"
     inkscape:showpageshadow="2"
     inkscape:pageopacity="0.0"
     inkscape:pagecheckerboard="0"
     inkscape:deskcolor="#d1d1d1"
     showgrid="false"
     inkscape:zoom="9.3625504"
     inkscape:cx="19.439148"
     inkscape:cy="23.925105"
     inkscape:window-width="1366"
     inkscape:window-height="695"
     inkscape:window-x="0"
     inkscape:window-y="0"
     inkscape:window-maximized="1"
     inkscape:current-layer="gbbdgaha" />
  <defs
     id="SvgjsDefs1782" />
  <g
     id="SvgjsG1783"
     featurekey="s6yzU4-0"
     transform="matrix(2.0711315,0,0,2.0711315,-1.9854012,-11.02649)"
     fill="#ffffff"
     style="display:inline;fill:#aa00ff;fill-opacity:1;stroke:none;stroke-width:0;stroke-dasharray:none;stroke-opacity:1">
    <path
       d="m 12.62,18.76 c 0,0.24 -0.14,0.46 -0.36,0.58 -5,2.76 -11.2,-0.28 -11.3,-6.36 -0.1,-5.7 5.2,-8.96 10.8,-7.16 0.96,0.3 0.54,1.58 -0.4,1.26 v 0 c -4.7,-1.52 -9.14,1.1 -9.06,5.88 0.08,5.04 5.12,7.3 8.98,5.4 v -5.52 c 0,-0.88 1.34,-0.88 1.34,0 z M 11.56,8.58 c 0.8,0.38 0.26,1.58 -0.54,1.24 C 10.3,9.5 9.46,9.36 8.5,9.38 3.94,9.56 4.08,16.3 8.54,16.26 v -3.42 c 0,-0.88 1.36,-0.88 1.36,0 v 4.04 c 0,0.72 -0.92,0.74 -1.42,0.74 -6.08,0 -6.36,-9.34 -0.02,-9.56 1.18,-0.04 2.2,0.14 3.1,0.52 z m 4.3,-1.76 c -0.88,0 -0.88,-1.32 0,-1.32 h 7.74 c 0.48,0 0.82,0.46 0.62,0.94 l -3.98,9.74 h 4.2 c 0.88,0 0.88,1.34 0,1.34 h -5.26 c -0.48,0 -0.76,-0.44 -0.54,-0.92 l 3.98,-9.78 z m 8.58,12.02 c 0.88,0 0.88,1.36 0,1.36 h -9.16 c -0.48,0 -0.82,-0.48 -0.62,-0.96 L 18.64,9.5 h -2.78 c -0.88,0 -0.88,-1.34 0,-1.34 h 3.72 c 0.56,0 0.86,0.48 0.64,1 l -3.96,9.68 z"
       id="path3"
       style="display:inline;fill:#aa00ff;fill-opacity:1;stroke:none;stroke-width:0;stroke-dasharray:none;stroke-opacity:1" />
  </g>
  <path
     style="fill:#aa00ff;fill-opacity:1;stroke:none;stroke-width:0;stroke-dasharray:none"
     d="M 12.588345,30.537674 C 7.9670011,29.694338 4.1321912,26.890758 2.0855386,22.859208 0.87252617,20.469784 0.4121753,18.438434 0.4121753,15.475305 0.4121753,9.8893911 2.9530675,5.2819701 7.5116598,2.6017525 10.02122,1.1262603 12.782054,0.41369096 15.992509,0.41285109 c 1.892578,-4.9506e-4 3.370319,0.18854789 5.17903,0.66253731 1.334469,0.3497096 1.807364,0.6191199 1.927595,1.0981592 0.102347,0.4077826 -0.177578,0.9570097 -0.570766,1.1198735 C 22.223884,3.4195426 22.064053,3.3996899 20.993209,3.1027387 18.764098,2.484593 16.817113,2.2803973 14.751292,2.4480996 8.5586531,2.9508152 3.9678967,6.8195613 2.6977371,12.605933 c -0.2311039,1.052825 -0.3184946,3.775952 -0.1576089,4.911168 0.6627072,4.67609 3.3921766,8.332495 7.5619098,10.129955 0.515671,0.222292 1.466286,0.541074 2.112477,0.708404 1.092677,0.282947 1.316904,0.304132 3.204255,0.302737 2.363719,-0.0018 3.273283,-0.165629 5.16557,-0.930713 l 1.136132,-0.459358 0.0534,-6.120954 0.05341,-6.120954 0.252151,-0.204133 c 0.288413,-0.233488 1.038951,-0.272127 1.305828,-0.06723 0.41116,0.315679 0.417978,0.428406 0.417978,6.910736 0,5.454833 -0.02221,6.356971 -0.163194,6.629611 -0.291215,0.563147 -2.767232,1.61799 -5.017019,2.13737 -1.433064,0.330834 -4.504552,0.384325 -6.03468,0.105097 z"
     id="path2761" />
  <path
     style="fill:#aa00ff;fill-opacity:1;stroke:none;stroke-width:0;stroke-dasharray:none"
     d="M 13.628001,24.916051 C 10.766784,24.398767 8.5567487,22.677368 7.2532241,19.950728 6.6794669,18.750574 6.393728,17.591031 6.3186832,16.158314 6.0697898,11.406566 8.7177674,7.5669257 13.068983,6.3701927 13.828978,6.161168 14.183251,6.1351276 16.273238,6.1346678 c 2.513288,-5.533e-4 2.833915,0.043899 4.735015,0.6564715 1.271821,0.4098059 1.658987,0.9406071 1.255373,1.7211076 -0.194933,0.3769601 -0.605909,0.5936424 -0.9884,0.5211225 C 21.108898,9.001834 20.56427,8.8325506 20.06494,8.6571841 18.851039,8.2308574 17.730911,8.0659403 16.059621,8.0674788 c -1.6616,0.00153 -2.499472,0.1787284 -3.791702,0.8018943 -0.721566,0.3479687 -1.085732,0.6155963 -1.774588,1.3041539 -0.7201792,0.719867 -0.9488999,1.037895 -1.3527991,1.881021 -0.5880471,1.22753 -0.8245273,2.234819 -0.8245273,3.512081 0,4.182849 2.8599604,7.256737 6.8891484,7.404463 l 0.854468,0.03133 0.0534,-3.988151 0.0534,-3.988151 0.252152,-0.204083 c 0.378824,-0.306607 1.126667,-0.276888 1.461638,0.05808 l 0.262167,0.262166 v 4.583056 4.583055 l -0.274296,0.274296 c -0.162173,0.162174 -0.491768,0.320935 -0.806321,0.388395 -0.722094,0.154861 -2.423625,0.12759 -3.433769,-0.05504 z"
     id="path2763" />
  <path
     style="fill:#aa00ff;fill-opacity:1;stroke:none;stroke-width:0;stroke-dasharray:none"
     d="M 28.9858,30.185292 C 28.385785,29.663948 28.249549,30.064227 32.866453,18.783484 L 37.128554,8.3696552 33.767564,8.3162509 30.406575,8.2628467 30.148949,7.9631672 c -0.355636,-0.4136876 -0.353574,-1.0559977 0.0045,-1.4141115 l 0.262166,-0.2621664 h 4.324644 4.324643 l 0.287542,0.2473333 c 0.222349,0.1912558 0.287179,0.3426092 0.285942,0.6675532 -0.0012,0.3056528 -1.155367,3.2391012 -4.2335,10.7595812 -2.327546,5.686648 -4.231901,10.360855 -4.231901,10.387127 0,0.02627 4.028983,0.04777 8.953296,0.04777 h 8.953296 l 0.258938,0.275625 c 0.386077,0.410962 0.366058,1.146048 -0.04074,1.495962 l -0.299681,0.257774 H 39.13022 29.262346 Z"
     id="path2765" />
  <path
     style="fill:#aa00ff;fill-opacity:1;stroke:none;stroke-width:0;stroke-dasharray:none;stroke-opacity:1"
     d="m 37.096042,24.609402 c -0.144192,-0.144191 -0.262167,-0.385973 -0.262167,-0.537292 0,-0.222119 2.099318,-5.444128 8.512338,-21.1742613 0.04202,-0.1030694 -1.561884,-0.1375943 -7.442924,-0.1602128 l -7.496487,-0.028831 -0.25774,-0.2996795 c -0.482156,-0.5606135 -0.253175,-1.46204145 0.41277,-1.62494845 0.13055,-0.031936 3.973005,-0.044534 8.538789,-0.027995 8.219284,0.029772 8.303604,0.032247 8.521397,0.25007195 0.518904,0.5189794 0.617156,0.2356131 -3.941922,11.3687211 l -4.264528,10.413828 4.847775,0.0534 4.847777,0.05341 0.243186,0.243286 c 0.372129,0.372282 0.343059,1.131216 -0.05649,1.474897 l -0.299681,0.257774 h -5.819962 -5.819962 z"
     id="path2767" />
</svg>
