<?xml version="1.0" encoding="UTF-8" standalone="no"?>
<svg
   viewBox="0 0 50.670982 31.823878"
   preserveAspectRatio="xMidYMid"
   class="css-8aabad"
   id="gbbdgaha"
   version="1.1"
   sodipodi:docname="logo_greg_fond.svg"
   width="50.670982"
   height="31.823877"
   inkscape:version="1.2.2 (b0a8486541, 2022-12-01)"
   xmlns:inkscape="http://www.inkscape.org/namespaces/inkscape"
   xmlns:sodipodi="http://sodipodi.sourceforge.net/DTD/sodipodi-0.dtd"
   xmlns="http://www.w3.org/2000/svg"
   xmlns:svg="http://www.w3.org/2000/svg">
  <sodipodi:namedview
     id="namedview10"
     pagecolor="#ffffff"
     bordercolor="#000000"
     borderopacity="0.25"
     inkscape:showpageshadow="2"
     inkscape:pageopacity="0.0"
     inkscape:pagecheckerboard="0"
     inkscape:deskcolor="#d1d1d1"
     showgrid="false"
     inkscape:zoom="9.3625504"
     inkscape:cx="9.6127653"
     inkscape:cy="24.24553"
     inkscape:window-width="1366"
     inkscape:window-height="695"
     inkscape:window-x="0"
     inkscape:window-y="0"
     inkscape:window-maximized="1"
     inkscape:current-layer="gbbdgaha" />
  <defs
     id="SvgjsDefs1782" />
  <g
     id="SvgjsG1783"
     featurekey="s6yzU4-0"
     transform="matrix(2.0711315,0,0,2.0711315,-1.649917,-10.691252)"
     fill="#ffffff"
     style="display:inline;fill:none;fill-opacity:1;stroke:#aa00ff;stroke-width:0.323978;stroke-dasharray:none;stroke-opacity:1">
    <path
       d="m 12.62,18.76 c 0,0.24 -0.14,0.46 -0.36,0.58 -5,2.76 -11.2,-0.28 -11.3,-6.36 -0.1,-5.7 5.2,-8.96 10.8,-7.16 0.96,0.3 0.54,1.58 -0.4,1.26 v 0 c -4.7,-1.52 -9.14,1.1 -9.06,5.88 0.08,5.04 5.12,7.3 8.98,5.4 v -5.52 c 0,-0.88 1.34,-0.88 1.34,0 z M 11.56,8.58 c 0.8,0.38 0.26,1.58 -0.54,1.24 C 10.3,9.5 9.46,9.36 8.5,9.38 3.94,9.56 4.08,16.3 8.54,16.26 v -3.42 c 0,-0.88 1.36,-0.88 1.36,0 v 4.04 c 0,0.72 -0.92,0.74 -1.42,0.74 -6.08,0 -6.36,-9.34 -0.02,-9.56 1.18,-0.04 2.2,0.14 3.1,0.52 z m 4.3,-1.76 c -0.88,0 -0.88,-1.32 0,-1.32 h 7.74 c 0.48,0 0.82,0.46 0.62,0.94 l -3.98,9.74 h 4.2 c 0.88,0 0.88,1.34 0,1.34 h -5.26 c -0.48,0 -0.76,-0.44 -0.54,-0.92 l 3.98,-9.78 z m 8.58,12.02 c 0.88,0 0.88,1.36 0,1.36 h -9.16 c -0.48,0 -0.82,-0.48 -0.62,-0.96 L 18.64,9.5 h -2.78 c -0.88,0 -0.88,-1.34 0,-1.34 h 3.72 c 0.56,0 0.86,0.48 0.64,1 l -3.96,9.68 z"
       id="path3"
       style="display:inline;fill:none;fill-opacity:1;stroke:#aa00ff;stroke-width:0.323978;stroke-dasharray:none;stroke-opacity:1" />
  </g>
  <path
     style="fill:#ffffff;stroke-width:0;fill-opacity:1"
     d="m 37.515008,25.073296 c -0.264351,-0.20074 -0.40127,-0.663042 -0.298379,-1.007466 0.04945,-0.165515 1.9516,-4.867001 4.227011,-10.447746 2.275411,-5.5807441 4.160691,-10.2309193 4.18951,-10.3337225 0.04954,-0.1767082 -0.34809,-0.1869149 -7.281744,-0.1869149 -8.034432,0 -7.798116,0.018421 -8.066187,-0.6287595 -0.174685,-0.4217283 -0.05553,-0.918125 0.284618,-1.1856835 0.268467,-0.2111765 0.418151,-0.2149186 8.596905,-0.2149186 6.123364,0 8.385352,0.032846 8.556979,0.1242549 0.353363,0.1882024 0.493174,0.4243538 0.496922,0.8393392 0.0023,0.2552155 -1.333485,3.6461103 -4.15485,10.5470649 -2.287036,5.594003 -4.188796,10.267168 -4.226134,10.384809 -0.06722,0.211779 -0.02131,0.213892 4.645907,0.213892 3.378866,0 4.779863,0.03519 4.947091,0.124255 0.368121,0.196063 0.493266,0.428255 0.496922,0.921983 0.0026,0.347579 -0.06015,0.522341 -0.25877,0.720957 l -0.262166,0.262167 h -5.858909 c -4.522151,0 -5.899022,-0.03046 -6.034726,-0.133511 z"
     id="path1220" />
  <path
     style="fill:#ffffff;fill-opacity:1;stroke-width:0"
     d="M 37.439097,24.995907 C 37.323102,24.879912 37.199072,24.668964 37.163475,24.527134 37.115908,24.337612 38.230856,21.484612 41.3699,13.76346 43.719031,7.9852697 45.617445,3.2336275 45.588598,3.2042551 45.559753,3.1748828 42.201,3.1268189 38.124704,3.0974466 L 30.713258,3.0440424 30.470032,2.8007563 C 30.09786,2.4284916 30.126909,1.6695599 30.526486,1.3258584 L 30.826165,1.068085 h 8.330412 c 8.830832,0 8.814503,-8.806e-4 9.001115,0.4854236 0.210492,0.5485346 0.36647,0.1447739 -7.494381,19.3999024 -0.692813,1.697044 -0.827329,2.113486 -0.698632,2.162873 0.08766,0.03364 2.200554,0.06116 4.695316,0.06116 5.374983,0 5.272981,-0.02055 5.272981,1.062417 0,0.247082 -0.08601,0.513442 -0.22137,0.685519 l -0.221369,0.281426 h -5.92012 c -5.752287,0 -5.926098,-0.006 -6.13102,-0.210899 z"
     id="path2257" />
  <path
     style="fill:#ffffff;fill-opacity:1;stroke-width:0"
     d="m 29.327129,30.484334 c -0.25923,-0.218129 -0.32862,-0.360978 -0.32862,-0.67651 0,-0.281143 1.253594,-3.467309 4.218936,-10.722953 2.320414,-5.677626 4.218936,-10.3478024 4.218936,-10.3781695 0,-0.030367 -1.444302,-0.055213 -3.20956,-0.055213 -3.538176,0 -3.69148,-0.024911 -3.946815,-0.6413455 -0.169225,-0.4085452 0.0054,-1.112497 0.317374,-1.2794648 0.12784,-0.068418 1.806531,-0.1085513 4.540451,-0.1085513 h 4.337621 l 0.262166,0.2621664 c 0.178268,0.1782668 0.262167,0.3815501 0.262167,0.6352126 0,0.2458472 -1.438548,3.8892521 -4.218936,10.6852801 -2.320415,5.671728 -4.218936,10.360488 -4.218936,10.419468 0,0.07092 3.022052,0.107234 8.923364,0.107234 h 8.923366 l 0.262166,0.262166 c 0.370408,0.370408 0.370408,1.134621 0,1.505028 l -0.262166,0.262167 H 39.532196 29.65575 Z"
     id="path2259" />
  <path
     style="fill:#ffffff;fill-opacity:1;stroke-width:0"
     d="M 12.923829,30.8807 C 9.8540842,30.316007 7.1427494,28.905779 5.014133,26.766684 2.8711706,24.613172 1.5386539,22.019436 0.94785753,18.851701 0.67809616,17.405293 0.67569173,14.37158 0.94315928,12.923829 2.0100012,7.1492159 6.1317109,2.7492119 11.844059,1.2869092 c 1.843825,-0.47200005 2.889645,-0.57516733 5.157957,-0.50881784 1.561197,0.045666 2.284109,0.11739214 3.238195,0.32128854 1.865796,0.3987365 2.744742,0.6950382 2.991205,1.0083653 0.429125,0.5455443 0.137983,1.4294222 -0.518322,1.5735708 C 22.523152,3.7230344 21.996618,3.6310306 21.290341,3.4327116 19.593483,2.9562426 18.149062,2.7560908 16.395105,2.7543844 9.5364804,2.747712 4.3705433,6.7305334 3.0293471,13.059084 c -0.3267023,1.541573 -0.3258559,4.151987 0.00185,5.710766 0.8473805,4.030663 3.1350194,7.070705 6.6597691,8.850163 1.8645108,0.941291 3.4032368,1.323468 5.6360518,1.399839 2.246689,0.07685 4.146478,-0.283042 6.061383,-1.148243 l 0.667553,-0.301618 v -5.939874 c 0,-6.271503 0.01155,-6.428736 0.485423,-6.610579 0.414482,-0.159052 1.019302,-0.06665 1.281772,0.195819 l 0.262167,0.262166 v 6.496408 c 0,5.742055 -0.01956,6.524326 -0.168398,6.73683 -0.364852,0.5209 -2.787051,1.549843 -4.744794,2.015574 -1.560369,0.3712 -4.654069,0.44763 -6.248297,0.154365 z"
     id="path2261" />
  <path
     style="fill:#ffffff;fill-opacity:1;stroke-width:0"
     d="M 14.472552,25.356631 C 12.903258,25.08409 11.804373,24.677416 10.689455,23.956588 7.0099864,21.577696 5.5651919,16.213495 7.4248789,11.835939 8.3219468,9.7243123 10.146059,7.9314217 12.229574,7.113482 c 1.34618,-0.5284793 1.888587,-0.623654 3.859097,-0.6771449 2.181509,-0.059219 3.416216,0.092085 5.067224,0.6209503 1.239019,0.396893 1.540912,0.647108 1.540912,1.2771371 0,0.3442414 -0.06812,0.5084211 -0.31221,0.7525144 C 21.994263,9.477273 21.776042,9.476972 20.700963,9.0846168 19.385875,8.6046688 18.157099,8.409884 16.44851,8.4105205 c -1.171661,4.379e-4 -1.671844,0.048072 -2.310872,0.2200777 -2.66884,0.7183669 -4.5173171,2.5661538 -5.2411357,5.2391778 -0.3162406,1.167859 -0.3120008,2.967786 0.00971,4.121413 0.8911573,3.195631 3.1785467,5.045978 6.6077247,5.345214 l 0.88117,0.07689 v -3.861527 c 0,-4.647759 -0.01189,-4.598578 1.111607,-4.598578 0.349113,0 0.512793,0.06332 0.712222,0.275529 l 0.258937,0.275529 0.02696,4.450746 c 0.02959,4.884418 0.03839,4.809892 -0.612834,5.190226 -0.315852,0.184468 -0.58091,0.220187 -1.762101,0.237457 -0.764678,0.01118 -1.510484,-5.41e-4 -1.657346,-0.02605 z"
     id="path2263" />
</svg>
